<svg width="23" height="23" viewBox="0 0 23 23" fill="none" xmlns="http://www.w3.org/2000/svg">
<circle cx="11.0494" cy="11.3538" r="10.25" stroke="white" stroke-width="1.5"/>
<path d="M17.8186 18.9691V17.2768C17.8186 16.3792 17.4621 15.5183 16.8273 14.8836C16.1926 14.2488 15.3317 13.8922 14.434 13.8922H7.6648C6.76714 13.8922 5.90625 14.2488 5.27151 14.8836C4.63677 15.5183 4.28018 16.3792 4.28018 17.2768V18.9691" stroke="white" stroke-width="1.5" stroke-linecap="round" stroke-linejoin="round"/>
<path d="M11.0494 10.5076C12.9187 10.5076 14.434 8.99226 14.434 7.12299C14.434 5.25372 12.9187 3.73838 11.0494 3.73838C9.18014 3.73838 7.66479 5.25372 7.66479 7.12299C7.66479 8.99226 9.18014 10.5076 11.0494 10.5076Z" stroke="white" stroke-width="1.5" stroke-linecap="round" stroke-linejoin="round"/>
</svg>
