<svg width="20" height="19" viewBox="0 0 20 19" fill="none" xmlns="http://www.w3.org/2000/svg">
<path d="M13.5896 1.5H16.5225V0.5H13.5896V1.5ZM11.8857 3.22218C11.8857 2.26875 12.6476 1.5 13.5896 1.5V0.5C12.0848 0.5 10.8857 1.72697 10.8857 3.22218H11.8857ZM11.8857 6.18018V3.22218H10.8857V6.18018H11.8857ZM13.5896 7.90149C12.6462 7.90149 11.8857 7.14002 11.8857 6.18018H10.8857C10.8857 7.68461 12.0862 8.90149 13.5896 8.90149V7.90149ZM16.5225 7.90149H13.5896V8.90149H16.5225V7.90149ZM18.2264 6.18018C18.2264 7.13873 17.4586 7.90149 16.5225 7.90149V8.90149C18.016 8.90149 19.2264 7.6859 19.2264 6.18018H18.2264ZM18.2264 3.22218V6.18018H19.2264V3.22218H18.2264ZM16.5225 1.5C17.4572 1.5 18.2264 2.27004 18.2264 3.22218H19.2264C19.2264 1.72568 18.0173 0.5 16.5225 0.5V1.5ZM6.50938 0.500004H3.57655V1.5H6.50938V0.500004ZM9.21334 3.22219C9.21334 1.72697 8.0142 0.500004 6.50938 0.500004V1.5C7.45147 1.5 8.21334 2.26875 8.21334 3.22219H9.21334ZM9.21334 6.18018V3.22219H8.21334V6.18018H9.21334ZM6.50938 8.9015C8.01281 8.9015 9.21334 7.68461 9.21334 6.18018H8.21334C8.21334 7.14002 7.45286 7.9015 6.50938 7.9015V8.9015ZM3.57655 8.9015H6.50938V7.9015H3.57655V8.9015ZM0.872583 6.18018C0.872583 7.6859 2.08307 8.9015 3.57655 8.9015V7.9015C2.64046 7.9015 1.87258 7.13873 1.87258 6.18018H0.872583ZM0.872583 3.22219V6.18018H1.87258V3.22219H0.872583ZM3.57655 0.500004C2.08167 0.500004 0.872583 1.72568 0.872583 3.22219H1.87258C1.87258 2.27004 2.64185 1.5 3.57655 1.5V0.500004ZM6.50917 10.4523H3.57634V11.4523H6.50917V10.4523ZM9.21313 13.1745C9.21313 11.6703 8.01285 10.4523 6.50917 10.4523V11.4523C7.4524 11.4523 8.21313 12.2144 8.21313 13.1745H9.21313ZM9.21313 16.1324V13.1745H8.21313V16.1324H9.21313ZM6.50917 18.8538C8.01387 18.8538 9.21313 17.6269 9.21313 16.1324H8.21313C8.21313 17.0849 7.45139 17.8538 6.50917 17.8538V18.8538ZM3.57634 18.8538H6.50917V17.8538H3.57634V18.8538ZM0.872375 16.1324C0.872375 17.6282 2.08159 18.8538 3.57634 18.8538V17.8538C2.64152 17.8538 1.87238 17.0836 1.87238 16.1324H0.872375ZM0.872375 13.1745V16.1324H1.87238V13.1745H0.872375ZM3.57634 10.4523C2.08261 10.4523 0.872375 11.669 0.872375 13.1745H1.87238C1.87238 12.2156 2.6405 11.4523 3.57634 11.4523V10.4523ZM16.5225 10.4523H13.5896V11.4523H16.5225V10.4523ZM19.2264 13.1745C19.2264 11.669 18.0162 10.4523 16.5225 10.4523V11.4523C17.4583 11.4523 18.2264 12.2156 18.2264 13.1745H19.2264ZM19.2264 16.1324V13.1745H18.2264V16.1324H19.2264ZM16.5225 18.8538C18.0172 18.8538 19.2264 17.6282 19.2264 16.1324H18.2264C18.2264 17.0836 17.4573 17.8538 16.5225 17.8538V18.8538ZM13.5896 18.8538H16.5225V17.8538H13.5896V18.8538ZM10.8857 16.1324C10.8857 17.6269 12.0849 18.8538 13.5896 18.8538V17.8538C12.6474 17.8538 11.8857 17.0849 11.8857 16.1324H10.8857ZM10.8857 13.1745V16.1324H11.8857V13.1745H10.8857ZM13.5896 10.4523C12.086 10.4523 10.8857 11.6703 10.8857 13.1745H11.8857C11.8857 12.2144 12.6464 11.4523 13.5896 11.4523V10.4523Z" fill="white"/>
</svg>
