<svg width="20" height="20" viewBox="0 0 20 20" fill="none" xmlns="http://www.w3.org/2000/svg">
<path d="M8.04941 19H3.04941C1.94484 19 1.04941 18.1046 1.04941 17V10.2969C1.04941 9.78521 1.24556 9.29295 1.5975 8.92146L8.5975 1.53257C9.38636 0.699887 10.7125 0.699886 11.5013 1.53257L18.5013 8.92146C18.8533 9.29295 19.0494 9.78521 19.0494 10.2969V17C19.0494 18.1046 18.154 19 17.0494 19H12.0494M8.04941 19V13.5C8.04941 13.2239 8.27327 13 8.54941 13H11.5494C11.8256 13 12.0494 13.2239 12.0494 13.5V19M8.04941 19H12.0494" stroke="white" stroke-width="1.5"/>
</svg>
