<svg width="20" height="20" viewBox="0 0 20 20" fill="none" xmlns="http://www.w3.org/2000/svg">
<path d="M17.0494 1H3.04941C1.94484 1 1.04941 1.89543 1.04941 3V17C1.04941 18.1046 1.94484 19 3.04941 19H17.0494C18.154 19 19.0494 18.1046 19.0494 17V3C19.0494 1.89543 18.154 1 17.0494 1Z" stroke="white" stroke-width="1.5" stroke-linecap="round" stroke-linejoin="round"/>
<path d="M6.54941 8C7.37784 8 8.04941 7.32843 8.04941 6.5C8.04941 5.67157 7.37784 5 6.54941 5C5.72098 5 5.04941 5.67157 5.04941 6.5C5.04941 7.32843 5.72098 8 6.54941 8Z" stroke="white" stroke-width="1.5" stroke-linecap="round" stroke-linejoin="round"/>
<path d="M19.0494 13L14.0494 8L3.04941 19" stroke="white" stroke-width="1.5" stroke-linecap="round" stroke-linejoin="round"/>
</svg>
