<svg width="20" height="22" viewBox="0 0 20 22" fill="none" xmlns="http://www.w3.org/2000/svg">
<path d="M6.12926 5.31255V4.81255H5.62926V5.31255H6.12926ZM6.12926 5.32255V5.82255H6.62926V5.32255H6.12926ZM13.9694 15.9726V16.4726H13.9944L14.0192 16.4701L13.9694 15.9726ZM6.12936 15.9726V15.4726H6.09618L6.06328 15.4769L6.12936 15.9726ZM13.9694 14.4026L14.0192 13.9051L13.9944 13.9026H13.9694V14.4026ZM6.12936 14.4026L6.07961 14.9001L6.10443 14.9026H6.12936V14.4026ZM5.37936 14.7726L5.80056 15.0421L5.80519 15.0346L5.37936 14.7726ZM5.37936 15.6126L4.95347 15.8746L4.95823 15.8821L5.37936 15.6126ZM14.2404 0.162537H5.85941V1.16254H14.2404V0.162537ZM19.5494 5.49254C19.5494 3.87539 19.092 2.52697 18.159 1.58242C17.2251 0.636877 15.8803 0.162537 14.2404 0.162537V1.16254C15.6896 1.16254 16.7493 1.5782 17.4476 2.28515C18.1468 2.9931 18.5494 4.05968 18.5494 5.49254H19.5494ZM19.5494 15.8225V5.49254H18.5494V15.8225H19.5494ZM14.2404 21.1625C15.8772 21.1625 17.2228 20.6999 18.1582 19.7572C19.093 18.8151 19.5494 17.4627 19.5494 15.8225H18.5494C18.5494 17.2823 18.1458 18.35 17.4484 19.0529C16.7515 19.7552 15.6926 20.1625 14.2404 20.1625V21.1625ZM5.85941 21.1625H14.2404V20.1625H5.85941V21.1625ZM0.549408 15.8225C0.549408 17.4666 1.02043 18.8182 1.96085 19.7586C2.90119 20.6989 4.24524 21.1625 5.85941 21.1625V20.1625C4.43358 20.1625 3.37262 19.7561 2.66796 19.0515C1.96339 18.3469 1.54941 17.2785 1.54941 15.8225H0.549408ZM0.549408 5.49254V15.8225H1.54941V5.49254H0.549408ZM5.85941 0.162537C4.2422 0.162537 2.89894 0.637872 1.96005 1.58104C1.02148 2.52389 0.549408 3.87159 0.549408 5.49254H1.54941C1.54941 4.06349 1.96234 2.99618 2.66876 2.28653C3.37488 1.5772 4.43661 1.16254 5.85941 1.16254V0.162537ZM5.62926 5.31255V5.32255H6.62926V5.31255H5.62926ZM9.11826 4.81255H6.12926V5.81255H9.11826V4.81255ZM10.3993 6.09155C10.3993 5.38557 9.82457 4.81255 9.11826 4.81255V5.81255C9.27395 5.81255 9.39926 5.93952 9.39926 6.09155H10.3993ZM9.11826 7.38255C9.82954 7.38255 10.3993 6.80453 10.3993 6.09155H9.39926C9.39926 6.26056 9.26898 6.38255 9.11826 6.38255V7.38255ZM6.12926 7.38255H9.11826V6.38255H6.12926V7.38255ZM4.84926 6.10255C4.84926 6.80827 5.4217 7.38255 6.12926 7.38255V6.38255C5.97482 6.38255 5.84926 6.25682 5.84926 6.10255H4.84926ZM6.12926 4.82255C5.4217 4.82255 4.84926 5.39682 4.84926 6.10255H5.84926C5.84926 5.94827 5.97482 5.82255 6.12926 5.82255V4.82255ZM13.9692 10.9025H6.12922V11.9025H13.9692V10.9025ZM14.2492 10.6225C14.2492 10.7764 14.1231 10.9025 13.9692 10.9025V11.9025C14.6754 11.9025 15.2492 11.3287 15.2492 10.6225H14.2492ZM13.9692 10.3415C14.1222 10.3415 14.2492 10.4678 14.2492 10.6225H15.2492C15.2492 9.91723 14.6762 9.34153 13.9692 9.34153V10.3415ZM6.12922 10.3415H13.9692V9.34153H6.12922V10.3415ZM5.84922 10.6225C5.84922 10.4674 5.97562 10.3415 6.12922 10.3415V9.34153C5.42083 9.34153 4.84922 9.91764 4.84922 10.6225H5.84922ZM6.12922 10.9025C5.97478 10.9025 5.84922 10.7768 5.84922 10.6225H4.84922C4.84922 11.3283 5.42167 11.9025 6.12922 11.9025V10.9025ZM13.9694 15.4726H6.12936V16.4726H13.9694V15.4726ZM14.1694 15.1926C14.1694 15.3406 14.0571 15.4613 13.9195 15.4751L14.0192 16.4701C14.6796 16.4039 15.1694 15.8425 15.1694 15.1926H14.1694ZM13.9195 14.9001C14.0536 14.9135 14.1694 15.0299 14.1694 15.1926H15.1694C15.1694 14.5352 14.6831 13.9716 14.0192 13.9051L13.9195 14.9001ZM6.12936 14.9026H13.9694V13.9026H6.12936V14.9026ZM5.80519 15.0346C5.86327 14.9402 5.96716 14.8888 6.07961 14.9001L6.17911 13.905C5.69157 13.8563 5.21546 14.0849 4.95353 14.5105L5.80519 15.0346ZM5.80519 15.3505C5.74209 15.248 5.74765 15.1247 5.8005 15.0421L4.95823 14.503C4.69108 14.9205 4.69664 15.4572 4.95353 15.8746L5.80519 15.3505ZM6.06328 15.4769C5.97234 15.4891 5.86509 15.444 5.8005 15.343L4.95823 15.8821C5.21364 16.2812 5.68638 16.536 6.19545 16.4682L6.06328 15.4769Z" fill="white"/>
</svg>
