<svg width="20" height="23" viewBox="0 0 20 23" fill="none" xmlns="http://www.w3.org/2000/svg">
<path d="M16.0494 7.66608C16.0494 6.07478 15.4173 4.54865 14.292 3.42344C13.1668 2.29822 11.6407 1.66608 10.0494 1.66608C8.45811 1.66608 6.93199 2.29822 5.80677 3.42344C4.68155 4.54865 4.04941 6.07478 4.04941 7.66608C4.04941 14.6661 1.04941 16.6661 1.04941 16.6661H19.0494C19.0494 16.6661 16.0494 14.6661 16.0494 7.66608Z" stroke="white" stroke-width="1.5" stroke-linecap="round" stroke-linejoin="round"/>
<path d="M11.7794 20.6661C11.6036 20.9692 11.3512 21.2207 11.0476 21.3956C10.744 21.5705 10.3998 21.6625 10.0494 21.6625C9.69902 21.6625 9.35479 21.5705 9.05117 21.3956C8.74755 21.2207 8.49521 20.9692 8.3194 20.6661" stroke="white" stroke-width="1.5" stroke-linecap="round" stroke-linejoin="round"/>
</svg>
