<svg width="24" height="24" viewBox="0 0 24 24" fill="none" xmlns="http://www.w3.org/2000/svg">
<path d="M9.04941 22.6661C9.60169 22.6661 10.0494 22.2184 10.0494 21.6661C10.0494 21.1138 9.60169 20.6661 9.04941 20.6661C8.49712 20.6661 8.04941 21.1138 8.04941 21.6661C8.04941 22.2184 8.49712 22.6661 9.04941 22.6661Z" stroke="white" stroke-width="1.5" stroke-linecap="round" stroke-linejoin="round"/>
<path d="M20.0494 22.6661C20.6017 22.6661 21.0494 22.2184 21.0494 21.6661C21.0494 21.1138 20.6017 20.6661 20.0494 20.6661C19.4971 20.6661 19.0494 21.1138 19.0494 21.6661C19.0494 22.2184 19.4971 22.6661 20.0494 22.6661Z" stroke="white" stroke-width="1.5" stroke-linecap="round" stroke-linejoin="round"/>
<path d="M1.04941 1.66608H5.04941L7.72941 15.0561C7.82085 15.5165 8.07132 15.93 8.43695 16.2244C8.80259 16.5187 9.26011 16.6751 9.72941 16.6661H19.4494C19.9187 16.6751 20.3762 16.5187 20.7419 16.2244C21.1075 15.93 21.358 15.5165 21.4494 15.0561L23.0494 6.66608H6.04941" stroke="white" stroke-width="1.5" stroke-linecap="round" stroke-linejoin="round"/>
</svg>
