<svg width="20" height="23" viewBox="0 0 20 23" fill="none" xmlns="http://www.w3.org/2000/svg">
<path d="M4.04941 1.66608L1.04941 5.66608V19.6661C1.04941 20.1965 1.26012 20.7052 1.63519 21.0803C2.01027 21.4554 2.51897 21.6661 3.04941 21.6661H17.0494C17.5798 21.6661 18.0885 21.4554 18.4636 21.0803C18.8387 20.7052 19.0494 20.1965 19.0494 19.6661V5.66608L16.0494 1.66608H4.04941Z" stroke="white" stroke-width="1.5" stroke-linecap="round" stroke-linejoin="round"/>
<path d="M1.04941 5.66608H19.0494" stroke="white" stroke-width="1.5" stroke-linecap="round" stroke-linejoin="round"/>
<path d="M14.0494 9.66608C14.0494 10.7269 13.628 11.7444 12.8778 12.4945C12.1277 13.2446 11.1103 13.6661 10.0494 13.6661C8.98854 13.6661 7.97113 13.2446 7.22098 12.4945C6.47084 11.7444 6.04941 10.7269 6.04941 9.66608" stroke="white" stroke-width="1.5" stroke-linecap="round" stroke-linejoin="round"/>
</svg>
