<svg width="25" height="20" viewBox="0 0 25 20" fill="none" xmlns="http://www.w3.org/2000/svg">
<path d="M12.498 15.5H12.998V15V9.25H14.498V18.75C14.498 19.1653 14.1633 19.5 13.748 19.5H3.748C3.33274 19.5 2.998 19.1653 2.998 18.75V9.25H4.498V15V15.5H4.998H12.498ZM3.96095 0.831963L3.96162 0.830956C4.09814 0.625012 4.33121 0.5 4.58394 0.5H20.4121C20.6637 0.5 20.8984 0.624231 21.0397 0.833138C21.04 0.833487 21.0402 0.833835 21.0404 0.834184L24.3701 5.83068C24.3703 5.83091 24.3704 5.83113 24.3706 5.83136C24.7026 6.33407 24.3415 7 23.748 7H1.25191C0.652726 7 0.294883 6.33302 0.628869 5.83204L0.628919 5.83196L3.96095 0.831963ZM20.623 19.5C20.5554 19.5 20.498 19.4426 20.498 19.375V9.25H21.998V19.375C21.998 19.4426 21.9406 19.5 21.873 19.5H20.623Z" stroke="white"/>
</svg>
